<?xml version="1.0" encoding="UTF-8" standalone="no"?>
<!-- Created with Inkscape (http://www.inkscape.org/) -->

<svg
   version="1.1"
   id="svg2"
   width="1292.7723"
   height="756.72485"
   viewBox="0 0 1292.7723 756.72482"
   sodipodi:docname="WebTemplate.ai"
   inkscape:export-filename="../../../Dropbox/MetaAbsDesign/images/about.svg"
   inkscape:export-xdpi="96"
   inkscape:export-ydpi="96"
   xmlns:inkscape="http://www.inkscape.org/namespaces/inkscape"
   xmlns:sodipodi="http://sodipodi.sourceforge.net/DTD/sodipodi-0.dtd"
   xmlns="http://www.w3.org/2000/svg"
   xmlns:svg="http://www.w3.org/2000/svg">
  <defs
     id="defs6">
    <clipPath
       clipPathUnits="userSpaceOnUse"
       id="clipPath32">
      <path
         d="m 427.885,320.457 h 424.23 v 159.087 h -424.23 z"
         id="path30" />
    </clipPath>
    <clipPath
       clipPathUnits="userSpaceOnUse"
       id="clipPath52">
      <path
         d="M 514,328 H 766 V 472 H 514 Z"
         id="path50" />
    </clipPath>
    <clipPath
       clipPathUnits="userSpaceOnUse"
       id="clipPath116">
      <path
         d="M 514,328 H 766 V 472 H 514 Z"
         id="path114" />
    </clipPath>
    <clipPath
       clipPathUnits="userSpaceOnUse"
       id="clipPath124">
      <path
         d="m 626.075,441.627 h 27.567 v -88.214 h -27.567 z"
         id="path122" />
    </clipPath>
  </defs>
  <sodipodi:namedview
     id="namedview4"
     pagecolor="#FFFFFF"
     bordercolor="#eeeeee"
     borderopacity="1"
     inkscape:showpageshadow="0"
     inkscape:pageopacity="0"
     inkscape:pagecheckerboard="0"
     inkscape:deskcolor="#505050"
     showgrid="false" />
  <g
     id="g10"
     inkscape:groupmode="layer"
     inkscape:label="Page 1"
     transform="matrix(1.3333333,0,0,-1.3333333,-310.61707,919.79574)">
    <path
       d="M 232.96281,122.30322 H 1202.5421 V 689.84683 H 232.96281 Z"
       style="fill:#FFFFFF;fill-opacity:1;fill-rule:nonzero;stroke:none;stroke-width:0.733063"
       id="path12" />
    <text
       xml:space="preserve"
       transform="scale(1.0333133,-0.96776069)"
       style="font-variant:normal;font-weight:normal;font-stretch:normal;font-size:8.79673px;font-family:ISOCTEUR;-inkscape-font-specification:ISOCTEUR;writing-mode:lr-tb;fill:#231f20;fill-opacity:1;fill-rule:nonzero;stroke:none;stroke-width:0.733063"
       id="text24"
       x="641.41785"
       y="-278.04501"><tspan
         x="641.41785 647.65472 653.89166 660.12854 666.36542 672.60229 678.83923 685.07611 691.31305 697.54999 703.78687 710.02374 716.26062 722.49756 728.73444 734.97137 741.20825 747.44513 753.68201 759.91895 766.15582 772.39276 778.62964 784.86658 791.10339 797.34033 803.57721 809.81415 816.05103 822.28796 828.52484 834.76172"
         y="-278.04501"
         sodipodi:role="line"
         id="tspan14"
         style="stroke-width:0.733063">Metaphysical Abstract Design LLC</tspan><tspan
         x="804.37775 810.61469 816.8515 823.08844 829.32532 835.56226 841.79913 848.03601 854.27295 860.50983 866.7467 872.98364 879.22052 885.4574 891.69434 897.93127 904.16815 910.40503 916.64191 922.87885 929.11572 935.3526 941.58954 947.82648 954.06329 960.30023 966.53711 972.77405 979.01093 985.24786 991.48474 997.72162 1003.9585 1010.1954 1016.4323 1022.6693 1028.9061 1035.1431"
         y="-564.71368"
         sodipodi:role="line"
         id="tspan16"
         style="stroke-width:0.733063">VR: Virtual Reflection, a brand under </tspan><tspan
         x="804.37775 810.61469 816.8515 823.08844 829.32532 835.56226 841.79913 848.03601 854.27295 860.50983 866.7467 872.98364 879.22052 885.4574 891.69434 897.93127 904.16815 910.40503 916.64191 922.87885 929.11572 935.3526 941.58954 947.82648 954.06329 960.30023 966.53711 972.77405 979.01093 985.24786 991.48474 997.72162 1003.9585 1010.1954"
         y="-554.15753"
         sodipodi:role="line"
         id="tspan18"
         style="stroke-width:0.733063">Metaphysical Abstract Design LLC, </tspan><tspan
         x="804.37775 810.61469 816.8515 823.08844 829.32532 835.56226 841.79913 848.03601 854.27295 860.50983 866.7467 872.98364 879.22052 885.4574 891.69434 897.93127 904.16815 910.40503 916.64191 922.87885 929.11572 935.3526 941.58954 947.82648 954.06329 960.30023 966.53711 972.77405 979.01093 985.24786 991.48474 997.72162 1003.9585 1010.1954"
         y="-543.60144"
         sodipodi:role="line"
         id="tspan20"
         style="stroke-width:0.733063">representing the people and their </tspan><tspan
         x="804.37775 810.61469 816.8515 823.08844 829.32532 835.56226 841.79913 848.03601 854.27295 860.50983 866.7467 872.98364 879.22052 885.4574 891.69434 897.93127 904.16815 910.40503"
         y="-533.04535"
         sodipodi:role="line"
         id="tspan22"
         style="stroke-width:0.733063">virtual identity. </tspan></text>
    <g
       id="g26"
       transform="matrix(0.75748373,0,0,0.70942952,274.69948,251.74576)">
      <g
         id="g28"
         clip-path="url(#clipPath32)">
        <g
           id="g34"
           transform="translate(664.7495,404.104)">
          <path
             d="m 0,0 -0.785,1.178 -0.591,1.375 c -15.39,26.735 -30.141,-9.728 -36.906,-22.184 l -0.983,-1.572 -0.981,-1.373 c -16.097,-24.508 -31.054,-5.74 -41.031,12.76 l -2.355,4.515 -2.356,4.32 6.283,3.14 3.336,-6.282 3.534,-6.477 c 15.719,-25.376 21.304,-19.656 33.374,4.123 l 2.553,4.907 1.57,2.553 c 9.836,18.093 26.523,26.862 39.461,6.085 L 5.3,5.104 6.282,3.142 0,0"
             style="fill:#ff0000;fill-opacity:1;fill-rule:nonzero;stroke:none"
             id="path36" />
        </g>
        <g
           id="g38"
           transform="translate(674.4161,400)">
          <path
             d="m 0,0 c 0,-1.871 -1.516,-3.385 -3.385,-3.385 -1.869,0 -3.385,1.514 -3.385,3.385 0,1.869 1.516,3.385 3.385,3.385 C -1.516,3.385 0,1.869 0,0"
             style="fill:#ff0000;fill-opacity:1;fill-rule:nonzero;stroke:none"
             id="path40" />
        </g>
      </g>
    </g>
    <g
       id="g42"
       transform="matrix(0.75748373,0,0,0.70942952,709.26653,546.06827)">
      <path
         d="M 0,0 V 0"
         style="fill:none;stroke:#ec1e24;stroke-width:2;stroke-linecap:round;stroke-linejoin:round;stroke-miterlimit:4;stroke-dasharray:none;stroke-opacity:1"
         id="path44" />
    </g>
    <g
       id="g46"
       transform="matrix(0.75748373,0,0,0.70942952,274.69948,251.74576)">
      <g
         id="g48"
         clip-path="url(#clipPath52)">
        <g
           id="g54"
           transform="translate(576.1514,412.46)">
          <path
             d="M 0,0 C 2.601,-3.188 5.202,-8.209 7.803,-13.395"
             style="fill:none;stroke:#ec1e24;stroke-width:2;stroke-linecap:round;stroke-linejoin:round;stroke-miterlimit:4;stroke-dasharray:0, 3.45;stroke-dashoffset:0;stroke-opacity:1"
             id="path56" />
        </g>
        <g
           id="g58"
           transform="translate(584.7266,397.5225)">
          <path
             d="M 0,0 V 0"
             style="fill:none;stroke:#ec1e24;stroke-width:2;stroke-linecap:round;stroke-linejoin:round;stroke-miterlimit:4;stroke-dasharray:none;stroke-opacity:1"
             id="path60" />
        </g>
        <g
           id="g62"
           transform="translate(584.7266,397.5225)">
          <path
             d="M 0,0 V 0"
             style="fill:none;stroke:#ec1e24;stroke-width:2;stroke-linecap:round;stroke-linejoin:round;stroke-miterlimit:4;stroke-dasharray:none;stroke-opacity:1"
             id="path64" />
        </g>
        <g
           id="g66"
           transform="translate(586.2534,394.5029)">
          <path
             d="m 0,0 c 4.539,-8.878 8.397,-15.358 12.255,-15.358 4.342,0 8.684,8.207 13.026,16.864"
             style="fill:none;stroke:#ec1e24;stroke-width:2;stroke-linecap:round;stroke-linejoin:round;stroke-miterlimit:4;stroke-dasharray:0, 3.383;stroke-dashoffset:0;stroke-opacity:1"
             id="path68" />
        </g>
        <g
           id="g70"
           transform="translate(612.2915,397.5225)">
          <path
             d="M 0,0 V 0"
             style="fill:none;stroke:#ec1e24;stroke-width:2;stroke-linecap:round;stroke-linejoin:round;stroke-miterlimit:4;stroke-dasharray:none;stroke-opacity:1"
             id="path72" />
        </g>
        <g
           id="g74"
           transform="translate(612.2915,397.5225)">
          <path
             d="M 0,0 V 0"
             style="fill:none;stroke:#ec1e24;stroke-width:2;stroke-linecap:round;stroke-linejoin:round;stroke-miterlimit:4;stroke-dasharray:none;stroke-opacity:1"
             id="path76" />
        </g>
        <g
           id="g78"
           transform="translate(613.8101,400.5469)">
          <path
             d="m 0,0 c 4.088,8.077 8.177,15.354 12.265,15.354 4.342,0 8.684,-8.207 13.026,-16.865"
             style="fill:none;stroke:#ec1e24;stroke-width:2;stroke-linecap:round;stroke-linejoin:round;stroke-miterlimit:4;stroke-dasharray:0, 3.384;stroke-dashoffset:0;stroke-opacity:1"
             id="path80" />
        </g>
        <g
           id="g82"
           transform="translate(639.8584,397.5225)">
          <path
             d="M 0,0 V 0"
             style="fill:none;stroke:#ec1e24;stroke-width:2;stroke-linecap:round;stroke-linejoin:round;stroke-miterlimit:4;stroke-dasharray:none;stroke-opacity:1"
             id="path84" />
        </g>
        <g
           id="g86"
           transform="translate(694.9922,397.5225)">
          <path
             d="M 0,0 C 3.675,7.351 7.351,14.703 11.026,17.349"
             style="fill:none;stroke:#cccbcb;stroke-width:0.25;stroke-linecap:round;stroke-linejoin:round;stroke-miterlimit:10;stroke-dasharray:none;stroke-opacity:1"
             id="path88" />
        </g>
        <g
           id="g90"
           transform="translate(573.6982,380.1729)">
          <path
             d="M 0,0 C 3.676,2.646 7.352,9.998 11.028,17.35"
             style="fill:none;stroke:#cccbcb;stroke-width:0.25;stroke-linecap:round;stroke-linejoin:round;stroke-miterlimit:10;stroke-dasharray:none;stroke-opacity:1"
             id="path92" />
        </g>
        <g
           id="g94"
           transform="translate(667.4248,397.5225)">
          <path
             d="m 0,0 c 4.595,-9.188 9.189,-18.378 13.784,-18.378 4.283,0 8.568,7.988 13.781,18.378"
             style="fill:none;stroke:#cccbcb;stroke-width:0.25;stroke-linecap:round;stroke-linejoin:round;stroke-miterlimit:10;stroke-dasharray:none;stroke-opacity:1"
             id="path96" />
        </g>
        <g
           id="g98"
           transform="translate(639.8584,397.5225)">
          <path
             d="m 0,0 c 4.595,9.189 9.189,18.378 13.783,18.378 4.595,0 9.19,-9.189 13.783,-18.378"
             style="fill:none;stroke:#cccbcb;stroke-width:0.25;stroke-linecap:round;stroke-linejoin:round;stroke-miterlimit:10;stroke-dasharray:none;stroke-opacity:1"
             id="path100" />
        </g>
        <g
           id="g102"
           transform="translate(612.2915,397.5225)">
          <path
             d="m 0,0 c 4.595,-9.188 9.189,-18.378 13.784,-18.378 4.594,0 9.189,9.19 13.783,18.378"
             style="fill:none;stroke:#cccbcb;stroke-width:0.25;stroke-linecap:round;stroke-linejoin:round;stroke-miterlimit:10;stroke-dasharray:none;stroke-opacity:1"
             id="path104" />
        </g>
        <g
           id="g106"
           transform="translate(584.7266,397.5225)">
          <path
             d="M 0,0 C 5.214,10.39 9.498,18.378 13.782,18.378 18.376,18.378 22.971,9.189 27.565,0"
             style="fill:none;stroke:#cccbcb;stroke-width:0.25;stroke-linecap:round;stroke-linejoin:round;stroke-miterlimit:10;stroke-dasharray:none;stroke-opacity:1"
             id="path108" />
        </g>
      </g>
    </g>
    <g
       id="g110"
       inkscape:export-filename="../../../Dropbox/MetaAbsDesign/images/about.svg"
       inkscape:export-xdpi="96"
       inkscape:export-ydpi="96"
       transform="matrix(0.75748373,0,0,0.70942952,274.69948,251.74576)">
      <g
         id="g112"
         clip-path="url(#clipPath116)">
        <g
           id="g118">
          <g
             id="g120" />
          <g
             id="g132">
            <g
               clip-path="url(#clipPath124)"
               opacity="0.5"
               id="g130">
              <g
                 transform="translate(626.0751,425.0862)"
                 id="g128">
                <path
                   d="m 0,0 v -71.673 l 27.566,16.54 V 16.54 Z"
                   style="fill:#cccbcb;fill-opacity:1;fill-rule:nonzero;stroke:none"
                   id="path126" />
              </g>
            </g>
          </g>
        </g>
        <g
           id="g134"
           transform="translate(639.8584,397.5225)">
          <path
             d="m 0,0 c 4.595,-9.188 9.189,-18.378 13.783,-18.378 4.595,0 9.19,9.19 13.783,18.378"
             style="fill:none;stroke:#ec1e24;stroke-width:2;stroke-linecap:round;stroke-linejoin:round;stroke-miterlimit:10;stroke-dasharray:none;stroke-opacity:1"
             id="path136" />
        </g>
        <g
           id="g138"
           transform="translate(667.4248,397.5225)">
          <path
             d="M 0,0 C 4.595,9.189 9.189,18.378 13.784,18.378 18.067,18.378 22.352,10.39 27.565,0"
             style="fill:none;stroke:#ec1e24;stroke-width:2;stroke-linecap:round;stroke-linejoin:round;stroke-miterlimit:10;stroke-dasharray:none;stroke-opacity:1"
             id="path140" />
        </g>
        <g
           id="g142"
           transform="translate(694.9922,397.5225)">
          <path
             d="M 0,0 C 3.675,-7.351 7.351,-14.702 11.026,-17.349"
             style="fill:none;stroke:#ec1e24;stroke-width:2;stroke-linecap:round;stroke-linejoin:round;stroke-miterlimit:10;stroke-dasharray:none;stroke-opacity:1"
             id="path144" />
        </g>
      </g>
    </g>
  </g>
</svg>
