<svg xmlns="http://www.w3.org/2000/svg" version="1.1" xmlns:xlink="http://www.w3.org/1999/xlink" xmlns:svgjs="http://svgjs.com/svgjs" width="49.659996" height="27.720123"><svg version="1.1" id="SvgjsSvg1011" width="49.659996" height="27.720123" viewBox="0 0 49.659994 27.720122" sodipodi:docname="MainPage2.ai" xmlns:inkscape="http://www.inkscape.org/namespaces/inkscape" xmlns:sodipodi="http://sodipodi.sourceforge.net/DTD/sodipodi-0.dtd" xmlns="http://www.w3.org/2000/svg" xmlns:svg="http://www.w3.org/2000/svg">
  <defs id="SvgjsDefs1010">
    <clipPath clipPathUnits="userSpaceOnUse" id="SvgjsClipPath1009">
      <path d="m 439.63,1 h 80 v 52.667 h -80 z" id="SvgjsPath1008"></path>
    </clipPath>
  </defs>
  <sodipodi:namedview id="SvgjsSodipodi:namedview1007" pagecolor="#505050" bordercolor="#eeeeee" borderopacity="1" inkscape:showpageshadow="0" inkscape:pageopacity="0" inkscape:pagecheckerboard="0" inkscape:deskcolor="#505050" showgrid="false"></sodipodi:namedview>
  <g id="SvgjsG1006" inkscape:groupmode="layer" inkscape:label="Page 1" transform="matrix(1.3333333,0,0,-1.3333333,-613.83572,49.870915)">
    <g id="SvgjsG1005">
      <g id="SvgjsG1004" clip-path="url(#clipPath27416)">
        <g id="SvgjsG1003" transform="translate(493.8578,29.9596)">
          <path d="m 0,0 -0.306,0.459 -0.23,0.535 c -5.992,10.41 -11.736,-3.788 -14.37,-8.638 l -0.383,-0.612 -0.382,-0.534 c -6.267,-9.543 -12.091,-2.235 -15.976,4.968 l -0.917,1.758 -0.917,1.682 2.446,1.223 1.299,-2.446 1.376,-2.522 c 6.121,-9.881 8.296,-7.654 12.995,1.605 l 0.994,1.911 0.612,0.994 C -9.93,7.427 -3.432,10.842 1.605,2.752 L 2.064,1.987 2.446,1.223 0,0" style="fill:#ff0000;fill-opacity:1;fill-rule:nonzero;stroke:none" id="SvgjsPath1002"></path>
        </g>
        <g id="SvgjsG1001" transform="translate(497.6218,28.3616)">
          <path d="m 0,0 c 0,-0.728 -0.59,-1.318 -1.318,-1.318 -0.728,0 -1.318,0.59 -1.318,1.318 0,0.728 0.59,1.318 1.318,1.318 C -0.59,1.318 0,0.728 0,0" style="fill:#ff0000;fill-opacity:1;fill-rule:nonzero;stroke:none" id="SvgjsPath1000"></path>
        </g>
      </g>
    </g>
  </g>
</svg><style>@media (prefers-color-scheme: light) { :root { filter: none; } }
</style></svg>