<?xml version="1.0" encoding="UTF-8" standalone="no"?>
<!-- Created with Inkscape (http://www.inkscape.org/) -->

<svg
   version="1.1"
   id="svg2"
   width="49.659996"
   height="27.720123"
   viewBox="0 0 49.659994 27.720122"
   sodipodi:docname="MainPage2.ai"
   xmlns:inkscape="http://www.inkscape.org/namespaces/inkscape"
   xmlns:sodipodi="http://sodipodi.sourceforge.net/DTD/sodipodi-0.dtd"
   xmlns="http://www.w3.org/2000/svg"
   xmlns:svg="http://www.w3.org/2000/svg">
  <defs
     id="defs6">
    <clipPath
       clipPathUnits="userSpaceOnUse"
       id="clipPath27416">
      <path
         d="m 439.63,1 h 80 v 52.667 h -80 z"
         id="path27414" />
    </clipPath>
  </defs>
  <sodipodi:namedview
     id="namedview4"
     pagecolor="#505050"
     bordercolor="#eeeeee"
     borderopacity="1"
     inkscape:showpageshadow="0"
     inkscape:pageopacity="0"
     inkscape:pagecheckerboard="0"
     inkscape:deskcolor="#505050"
     showgrid="false" />
  <g
     id="g10"
     inkscape:groupmode="layer"
     inkscape:label="Page 1"
     transform="matrix(1.3333333,0,0,-1.3333333,-613.83572,49.870915)">
    <g
       id="g27410">
      <g
         id="g27412"
         clip-path="url(#clipPath27416)">
        <g
           id="g27418"
           transform="translate(493.8578,29.9596)">
          <path
             d="m 0,0 -0.306,0.459 -0.23,0.535 c -5.992,10.41 -11.736,-3.788 -14.37,-8.638 l -0.383,-0.612 -0.382,-0.534 c -6.267,-9.543 -12.091,-2.235 -15.976,4.968 l -0.917,1.758 -0.917,1.682 2.446,1.223 1.299,-2.446 1.376,-2.522 c 6.121,-9.881 8.296,-7.654 12.995,1.605 l 0.994,1.911 0.612,0.994 C -9.93,7.427 -3.432,10.842 1.605,2.752 L 2.064,1.987 2.446,1.223 0,0"
             style="fill:#ff0000;fill-opacity:1;fill-rule:nonzero;stroke:none"
             id="path27420" />
        </g>
        <g
           id="g27422"
           transform="translate(497.6218,28.3616)">
          <path
             d="m 0,0 c 0,-0.728 -0.59,-1.318 -1.318,-1.318 -0.728,0 -1.318,0.59 -1.318,1.318 0,0.728 0.59,1.318 1.318,1.318 C -0.59,1.318 0,0.728 0,0"
             style="fill:#ff0000;fill-opacity:1;fill-rule:nonzero;stroke:none"
             id="path27424" />
        </g>
      </g>
    </g>
  </g>
</svg>
